<svg width="40" height="40" viewBox="0 0 51 51" fill="none" xmlns="http://www.w3.org/2000/svg">
<ellipse cx="18.5" cy="26" rx="18.5" ry="18" fill="url(#paint0_linear_10_6)" fill-opacity="0.2"/>
<path d="M13.1619 31.8182H15.3636V44.8153C15.3636 45.9754 15.1506 46.9608 14.7244 47.7717C14.2983 48.5825 13.6976 49.198 12.9222 49.6183C12.1469 50.0385 11.2325 50.2486 10.179 50.2486C9.18466 50.2486 8.29983 50.0681 7.5245 49.707C6.74917 49.3401 6.13956 48.8192 5.69567 48.1445C5.25178 47.4698 5.02983 46.6679 5.02983 45.7386H7.19602C7.19602 46.2536 7.32327 46.7034 7.57777 47.0881C7.83819 47.4669 8.1933 47.7628 8.64311 47.9759C9.09292 48.1889 9.60488 48.2955 10.179 48.2955C10.8123 48.2955 11.3509 48.1623 11.7947 47.896C12.2386 47.6296 12.576 47.239 12.8068 46.7241C13.0436 46.2032 13.1619 45.567 13.1619 44.8153V31.8182ZM29.2362 31.8182H31.4379V44.8153C31.4379 45.9754 31.2248 46.9608 30.7987 47.7717C30.3725 48.5825 29.7718 49.198 28.9964 49.6183C28.2211 50.0385 27.3067 50.2486 26.2532 50.2486C25.2589 50.2486 24.3741 50.0681 23.5987 49.707C22.8234 49.3401 22.2138 48.8192 21.7699 48.1445C21.326 47.4698 21.104 46.6679 21.104 45.7386H23.2702C23.2702 46.2536 23.3975 46.7034 23.652 47.0881C23.9124 47.4669 24.2675 47.7628 24.7173 47.9759C25.1671 48.1889 25.6791 48.2955 26.2532 48.2955C26.8865 48.2955 27.4251 48.1623 27.869 47.896C28.3129 47.6296 28.6502 47.239 28.881 46.7241C29.1178 46.2032 29.2362 45.567 29.2362 44.8153V31.8182Z" fill="black"/>
<path d="M14.4446 24.142C14.0066 24.142 13.6308 23.9852 13.3171 23.6715C13.0034 23.3578 12.8466 22.982 12.8466 22.544C12.8466 22.1061 13.0034 21.7302 13.3171 21.4165C13.6308 21.1029 14.0066 20.946 14.4446 20.946C14.8826 20.946 15.2584 21.1029 15.5721 21.4165C15.8858 21.7302 16.0426 22.1061 16.0426 22.544C16.0426 22.834 15.9686 23.1004 15.8207 23.343C15.6786 23.5857 15.4863 23.781 15.2436 23.929C15.0069 24.071 14.7405 24.142 14.4446 24.142ZM28.8294 24.142C28.3914 24.142 28.0156 23.9852 27.7019 23.6715C27.3882 23.3578 27.2314 22.982 27.2314 22.544C27.2314 22.1061 27.3882 21.7302 27.7019 21.4165C28.0156 21.1029 28.3914 20.946 28.8294 20.946C29.2673 20.946 29.6432 21.1029 29.9569 21.4165C30.2705 21.7302 30.4274 22.1061 30.4274 22.544C30.4274 22.834 30.3534 23.1004 30.2054 23.343C30.0634 23.5857 29.871 23.781 29.6284 23.929C29.3916 24.071 29.1253 24.142 28.8294 24.142Z" fill="black"/>
<defs>
<linearGradient id="paint0_linear_10_6" x1="18.5" y1="8" x2="18.5" y2="44" gradientUnits="userSpaceOnUse">
<stop stop-color="#DE411F"/>
<stop offset="1" stop-color="#420ED4"/>
</linearGradient>
</defs>
</svg>
