<svg width="93" height="46" viewBox="0 0 93 46" fill="none" xmlns="http://www.w3.org/2000/svg">
<path d="M92.5 34.5C92.5 35.8006 91.4277 37.1842 89.113 38.5453C86.8325 39.8863 83.4993 41.1112 79.3367 42.1465C71.0192 44.2152 59.5023 45.5 46.7627 45.5C34.023 45.5 22.5061 44.2152 14.1887 42.1465C10.0261 41.1112 6.69288 39.8863 4.41239 38.5453C2.0977 37.1842 1.02539 35.8006 1.02539 34.5C1.02539 33.1994 2.0977 31.8158 4.41239 30.4547C6.69288 29.1137 10.0261 27.8888 14.1887 26.8535C22.5061 24.7848 34.023 23.5 46.7627 23.5C59.5023 23.5 71.0192 24.7848 79.3367 26.8535C83.4993 27.8888 86.8325 29.1137 89.113 30.4547C91.4277 31.8158 92.5 33.1994 92.5 34.5Z" stroke="black"/>
<rect y="22" width="93" height="12" fill="white"/>
<path d="M6.39773 18.2727H7.45455V24.5114C7.45455 25.0682 7.35227 25.5412 7.14773 25.9304C6.94318 26.3196 6.65483 26.6151 6.28267 26.8168C5.91051 27.0185 5.47159 27.1193 4.96591 27.1193C4.48864 27.1193 4.06392 27.0327 3.69176 26.8594C3.3196 26.6832 3.02699 26.4332 2.81392 26.1094C2.60085 25.7855 2.49432 25.4006 2.49432 24.9545H3.53409C3.53409 25.2017 3.59517 25.4176 3.71733 25.6023C3.84233 25.7841 4.01278 25.9261 4.22869 26.0284C4.4446 26.1307 4.69034 26.1818 4.96591 26.1818C5.26989 26.1818 5.52841 26.1179 5.74148 25.9901C5.95455 25.8622 6.11648 25.6747 6.22727 25.4276C6.34091 25.1776 6.39773 24.8722 6.39773 24.5114V18.2727ZM13.3804 27.1364C12.7497 27.1364 12.2057 26.9972 11.7483 26.7188C11.2937 26.4375 10.9429 26.0455 10.6957 25.5426C10.4514 25.0369 10.3293 24.4489 10.3293 23.7784C10.3293 23.108 10.4514 22.517 10.6957 22.0057C10.9429 21.4915 11.2866 21.0909 11.727 20.804C12.1702 20.5142 12.6872 20.3693 13.2781 20.3693C13.619 20.3693 13.9557 20.4261 14.2881 20.5398C14.6205 20.6534 14.923 20.8381 15.1957 21.0938C15.4685 21.3466 15.6858 21.6818 15.8477 22.0994C16.0097 22.517 16.0906 23.0312 16.0906 23.642V24.0682H11.0452V23.1989H15.0679C15.0679 22.8295 14.994 22.5 14.8463 22.2102C14.7014 21.9205 14.494 21.6918 14.2241 21.5241C13.9571 21.3565 13.6418 21.2727 13.2781 21.2727C12.8776 21.2727 12.531 21.3722 12.2384 21.571C11.9486 21.767 11.7256 22.0227 11.5693 22.3381C11.4131 22.6534 11.3349 22.9915 11.3349 23.3523V23.9318C11.3349 24.4261 11.4202 24.8452 11.5906 25.1889C11.7639 25.5298 12.004 25.7898 12.3108 25.9688C12.6176 26.1449 12.9741 26.233 13.3804 26.233C13.6446 26.233 13.8832 26.196 14.0963 26.1222C14.3122 26.0455 14.4983 25.9318 14.6545 25.7812C14.8108 25.6278 14.9315 25.4375 15.0168 25.2102L15.9884 25.483C15.8861 25.8125 15.7142 26.1023 15.4727 26.3523C15.2312 26.5994 14.933 26.7926 14.5778 26.9318C14.2227 27.0682 13.8236 27.1364 13.3804 27.1364ZM23.4568 21.9205L22.5534 22.1761C22.4966 22.0256 22.4128 21.8793 22.302 21.7372C22.194 21.5923 22.0463 21.473 21.8588 21.3793C21.6713 21.2855 21.4312 21.2386 21.1386 21.2386C20.7381 21.2386 20.4043 21.331 20.1372 21.5156C19.873 21.6974 19.7409 21.929 19.7409 22.2102C19.7409 22.4602 19.8318 22.6577 20.0136 22.8026C20.1955 22.9474 20.4795 23.0682 20.8659 23.1648L21.8375 23.4034C22.4227 23.5455 22.8588 23.7628 23.1457 24.0554C23.4327 24.3452 23.5761 24.7187 23.5761 25.1761C23.5761 25.5511 23.4682 25.8864 23.2523 26.1818C23.0392 26.4773 22.7409 26.7102 22.3574 26.8807C21.9739 27.0511 21.5278 27.1364 21.0193 27.1364C20.3517 27.1364 19.7991 26.9915 19.3616 26.7017C18.9241 26.4119 18.6472 25.9886 18.5307 25.4318L19.4852 25.1932C19.5761 25.5455 19.748 25.8097 20.0009 25.9858C20.2565 26.1619 20.5903 26.25 21.0023 26.25C21.471 26.25 21.8432 26.1506 22.1187 25.9517C22.3972 25.75 22.5364 25.5085 22.5364 25.2273C22.5364 25 22.4568 24.8097 22.2977 24.6562C22.1386 24.5 21.8943 24.3835 21.5648 24.3068L20.4739 24.0511C19.8744 23.9091 19.4341 23.6889 19.1528 23.3906C18.8744 23.0895 18.7352 22.7131 18.7352 22.2614C18.7352 21.892 18.8389 21.5653 19.0463 21.2812C19.2565 20.9972 19.542 20.7741 19.9028 20.6122C20.2665 20.4503 20.6784 20.3693 21.1386 20.3693C21.7864 20.3693 22.2949 20.5114 22.6642 20.7955C23.0364 21.0795 23.3006 21.4545 23.4568 21.9205ZM30.9263 21.9205L30.0229 22.1761C29.9661 22.0256 29.8823 21.8793 29.7715 21.7372C29.6636 21.5923 29.5158 21.473 29.3283 21.3793C29.1408 21.2855 28.9008 21.2386 28.6082 21.2386C28.2076 21.2386 27.8738 21.331 27.6067 21.5156C27.3425 21.6974 27.2104 21.929 27.2104 22.2102C27.2104 22.4602 27.3013 22.6577 27.4832 22.8026C27.665 22.9474 27.9491 23.0682 28.3354 23.1648L29.307 23.4034C29.8923 23.5455 30.3283 23.7628 30.6153 24.0554C30.9022 24.3452 31.0457 24.7187 31.0457 25.1761C31.0457 25.5511 30.9377 25.8864 30.7218 26.1818C30.5087 26.4773 30.2104 26.7102 29.8269 26.8807C29.4434 27.0511 28.9974 27.1364 28.4888 27.1364C27.8212 27.1364 27.2687 26.9915 26.8312 26.7017C26.3937 26.4119 26.1167 25.9886 26.0002 25.4318L26.9548 25.1932C27.0457 25.5455 27.2175 25.8097 27.4704 25.9858C27.7261 26.1619 28.0599 26.25 28.4718 26.25C28.9406 26.25 29.3127 26.1506 29.5883 25.9517C29.8667 25.75 30.0059 25.5085 30.0059 25.2273C30.0059 25 29.9263 24.8097 29.7673 24.6562C29.6082 24.5 29.3638 24.3835 29.0343 24.3068L27.9434 24.0511C27.344 23.9091 26.9036 23.6889 26.6224 23.3906C26.344 23.0895 26.2048 22.7131 26.2048 22.2614C26.2048 21.892 26.3085 21.5653 26.5158 21.2812C26.7261 20.9972 27.0116 20.7741 27.3724 20.6122C27.736 20.4503 28.1479 20.3693 28.6082 20.3693C29.2559 20.3693 29.7644 20.5114 30.1337 20.7955C30.5059 21.0795 30.7701 21.4545 30.9263 21.9205ZM33.7595 27V20.4545H34.7652V27H33.7595ZM34.2709 19.3636C34.0749 19.3636 33.9058 19.2969 33.7638 19.1634C33.6246 19.0298 33.555 18.8693 33.555 18.6818C33.555 18.4943 33.6246 18.3338 33.7638 18.2003C33.9058 18.0668 34.0749 18 34.2709 18C34.4669 18 34.6345 18.0668 34.7737 18.2003C34.9158 18.3338 34.9868 18.4943 34.9868 18.6818C34.9868 18.8693 34.9158 19.0298 34.7737 19.1634C34.6345 19.2969 34.4669 19.3636 34.2709 19.3636ZM40.4663 27.1364C39.8526 27.1364 39.3242 26.9915 38.881 26.7017C38.4379 26.4119 38.0969 26.0128 37.8583 25.5043C37.6197 24.9957 37.5004 24.4148 37.5004 23.7614C37.5004 23.0966 37.6225 22.5099 37.8668 22.0014C38.114 21.4901 38.4577 21.0909 38.8981 20.804C39.3413 20.5142 39.8583 20.3693 40.4492 20.3693C40.9094 20.3693 41.3242 20.4545 41.6935 20.625C42.0629 20.7955 42.3654 21.0341 42.6012 21.3409C42.837 21.6477 42.9833 22.0057 43.0401 22.4148H42.0344C41.9577 22.1165 41.7873 21.8523 41.5231 21.6222C41.2617 21.3892 40.9094 21.2727 40.4663 21.2727C40.0742 21.2727 39.7305 21.375 39.435 21.5795C39.1424 21.7812 38.9137 22.0668 38.7489 22.4361C38.587 22.8026 38.506 23.233 38.506 23.7273C38.506 24.233 38.5856 24.6733 38.7447 25.0483C38.9066 25.4233 39.1339 25.7145 39.4265 25.9219C39.7219 26.1293 40.0685 26.233 40.4663 26.233C40.7276 26.233 40.9648 26.1875 41.1779 26.0966C41.391 26.0057 41.5714 25.875 41.7191 25.7045C41.8668 25.5341 41.9719 25.3295 42.0344 25.0909H43.0401C42.9833 25.4773 42.8427 25.8253 42.6183 26.1349C42.3967 26.4418 42.1026 26.6861 41.7362 26.8679C41.3725 27.0469 40.9492 27.1364 40.4663 27.1364ZM47.6364 27.1534C47.2217 27.1534 46.8452 27.0753 46.5072 26.919C46.1691 26.7599 45.9006 26.5312 45.7018 26.233C45.5029 25.9318 45.4035 25.5682 45.4035 25.142C45.4035 24.767 45.4773 24.4631 45.6251 24.2301C45.7728 23.9943 45.9702 23.8097 46.2174 23.6761C46.4646 23.5426 46.7373 23.4432 47.0356 23.3778C47.3367 23.3097 47.6393 23.2557 47.9433 23.2159C48.341 23.1648 48.6634 23.1264 48.9106 23.1009C49.1606 23.0724 49.3424 23.0256 49.456 22.9602C49.5725 22.8949 49.6308 22.7812 49.6308 22.6193V22.5852C49.6308 22.1648 49.5157 21.8381 49.2856 21.6051C49.0583 21.3722 48.7131 21.2557 48.2501 21.2557C47.77 21.2557 47.3935 21.3608 47.1208 21.571C46.8481 21.7812 46.6563 22.0057 46.5455 22.2443L45.591 21.9034C45.7614 21.5057 45.9887 21.196 46.2728 20.9744C46.5597 20.75 46.8722 20.5937 47.2103 20.5057C47.5512 20.4148 47.8864 20.3693 48.216 20.3693C48.4262 20.3693 48.6677 20.3949 48.9404 20.446C49.216 20.4943 49.4816 20.5952 49.7373 20.7486C49.9958 20.902 50.2103 21.1335 50.3808 21.4432C50.5512 21.7528 50.6364 22.1676 50.6364 22.6875V27H49.6308V26.1136H49.5796C49.5114 26.2557 49.3978 26.4077 49.2387 26.5696C49.0796 26.7315 48.868 26.8693 48.6038 26.983C48.3396 27.0966 48.0171 27.1534 47.6364 27.1534ZM47.7898 26.25C48.1876 26.25 48.5228 26.1719 48.7955 26.0156C49.0711 25.8594 49.2785 25.6577 49.4177 25.4105C49.5597 25.1634 49.6308 24.9034 49.6308 24.6307V23.7102C49.5881 23.7614 49.4944 23.8082 49.3495 23.8509C49.2075 23.8906 49.0427 23.9261 48.8552 23.9574C48.6705 23.9858 48.4901 24.0114 48.314 24.0341C48.1407 24.054 48.0001 24.071 47.8921 24.0852C47.6308 24.1193 47.3864 24.1747 47.1592 24.2514C46.9347 24.3253 46.7529 24.4375 46.6137 24.5881C46.4773 24.7358 46.4092 24.9375 46.4092 25.1932C46.4092 25.5426 46.5384 25.8068 46.7969 25.9858C47.0583 26.1619 47.3893 26.25 47.7898 26.25ZM61.7243 18.2727H62.7811V24.5114C62.7811 25.0682 62.6788 25.5412 62.4743 25.9304C62.2697 26.3196 61.9814 26.6151 61.6092 26.8168C61.2371 27.0185 60.7982 27.1193 60.2925 27.1193C59.8152 27.1193 59.3905 27.0327 59.0183 26.8594C58.6462 26.6832 58.3535 26.4332 58.1405 26.1094C57.9274 25.7855 57.8209 25.4006 57.8209 24.9545H58.8607C58.8607 25.2017 58.9217 25.4176 59.0439 25.6023C59.1689 25.7841 59.3393 25.9261 59.5553 26.0284C59.7712 26.1307 60.0169 26.1818 60.2925 26.1818C60.5964 26.1818 60.855 26.1179 61.068 25.9901C61.2811 25.8622 61.443 25.6747 61.5538 25.4276C61.6675 25.1776 61.7243 24.8722 61.7243 24.5114V18.2727ZM65.9626 27V20.4545H66.9683V27H65.9626ZM66.474 19.3636C66.278 19.3636 66.1089 19.2969 65.9669 19.1634C65.8277 19.0298 65.7581 18.8693 65.7581 18.6818C65.7581 18.4943 65.8277 18.3338 65.9669 18.2003C66.1089 18.0668 66.278 18 66.474 18C66.67 18 66.8376 18.0668 66.9768 18.2003C67.1189 18.3338 67.1899 18.4943 67.1899 18.6818C67.1899 18.8693 67.1189 19.0298 66.9768 19.1634C66.8376 19.2969 66.67 19.3636 66.474 19.3636ZM71.9364 27.1534C71.5217 27.1534 71.1452 27.0753 70.8072 26.919C70.4691 26.7599 70.2006 26.5312 70.0018 26.233C69.8029 25.9318 69.7035 25.5682 69.7035 25.142C69.7035 24.767 69.7773 24.4631 69.9251 24.2301C70.0728 23.9943 70.2702 23.8097 70.5174 23.6761C70.7646 23.5426 71.0373 23.4432 71.3356 23.3778C71.6367 23.3097 71.9393 23.2557 72.2433 23.2159C72.641 23.1648 72.9634 23.1264 73.2106 23.1009C73.4606 23.0724 73.6424 23.0256 73.756 22.9602C73.8725 22.8949 73.9308 22.7812 73.9308 22.6193V22.5852C73.9308 22.1648 73.8157 21.8381 73.5856 21.6051C73.3583 21.3722 73.0131 21.2557 72.5501 21.2557C72.07 21.2557 71.6935 21.3608 71.4208 21.571C71.1481 21.7812 70.9563 22.0057 70.8455 22.2443L69.891 21.9034C70.0614 21.5057 70.2887 21.196 70.5728 20.9744C70.8597 20.75 71.1722 20.5937 71.5103 20.5057C71.8512 20.4148 72.1864 20.3693 72.516 20.3693C72.7262 20.3693 72.9677 20.3949 73.2404 20.446C73.516 20.4943 73.7816 20.5952 74.0373 20.7486C74.2958 20.902 74.5103 21.1335 74.6808 21.4432C74.8512 21.7528 74.9364 22.1676 74.9364 22.6875V27H73.9308V26.1136H73.8796C73.8114 26.2557 73.6978 26.4077 73.5387 26.5696C73.3796 26.7315 73.168 26.8693 72.9038 26.983C72.6396 27.0966 72.3171 27.1534 71.9364 27.1534ZM72.0898 26.25C72.4876 26.25 72.8228 26.1719 73.0955 26.0156C73.3711 25.8594 73.5785 25.6577 73.7177 25.4105C73.8597 25.1634 73.9308 24.9034 73.9308 24.6307V23.7102C73.8881 23.7614 73.7944 23.8082 73.6495 23.8509C73.5075 23.8906 73.3427 23.9261 73.1552 23.9574C72.9705 23.9858 72.7901 24.0114 72.614 24.0341C72.4407 24.054 72.3001 24.071 72.1921 24.0852C71.9308 24.1193 71.6864 24.1747 71.4592 24.2514C71.2347 24.3253 71.0529 24.4375 70.9137 24.5881C70.7773 24.7358 70.7092 24.9375 70.7092 25.1932C70.7092 25.5426 70.8384 25.8068 71.0969 25.9858C71.3583 26.1619 71.6893 26.25 72.0898 26.25ZM78.9777 23.0625V27H77.972V20.4545H78.9436V21.4773H79.0288C79.1822 21.1449 79.4152 20.8778 79.7277 20.6761C80.0402 20.4716 80.4436 20.3693 80.9379 20.3693C81.3811 20.3693 81.7689 20.4602 82.1013 20.642C82.4337 20.821 82.6922 21.0938 82.8768 21.4602C83.0615 21.8239 83.1538 22.2841 83.1538 22.8409V27H82.1482V22.9091C82.1482 22.3949 82.0146 21.9943 81.7476 21.7074C81.4805 21.4176 81.1141 21.2727 80.6482 21.2727C80.3271 21.2727 80.0402 21.3423 79.7874 21.4815C79.5374 21.6207 79.3399 21.8239 79.195 22.0909C79.0501 22.358 78.9777 22.6818 78.9777 23.0625ZM88.8336 29.5909C88.3478 29.5909 87.9302 29.5284 87.5808 29.4034C87.2313 29.2812 86.9401 29.1193 86.7072 28.9176C86.4771 28.7188 86.2938 28.5057 86.1575 28.2784L86.9586 27.7159C87.0495 27.8352 87.1646 27.9716 87.3038 28.125C87.443 28.2812 87.6333 28.4162 87.8748 28.5298C88.1191 28.6463 88.4387 28.7045 88.8336 28.7045C89.362 28.7045 89.7981 28.5767 90.1418 28.321C90.4856 28.0653 90.6575 27.6648 90.6575 27.1193V25.7898H90.5722C90.4984 25.9091 90.3933 26.0568 90.2569 26.233C90.1234 26.4062 89.9302 26.5611 89.6773 26.6974C89.4273 26.831 89.0893 26.8977 88.6631 26.8977C88.1347 26.8977 87.6603 26.7727 87.2398 26.5227C86.8222 26.2727 86.4913 25.9091 86.2469 25.4318C86.0055 24.9545 85.8847 24.375 85.8847 23.6932C85.8847 23.0227 86.0026 22.4389 86.2384 21.9418C86.4742 21.4418 86.8023 21.0554 87.2228 20.7827C87.6433 20.5071 88.129 20.3693 88.6802 20.3693C89.1063 20.3693 89.4444 20.4403 89.6944 20.5824C89.9472 20.7216 90.1404 20.8807 90.2739 21.0597C90.4103 21.2358 90.5154 21.3807 90.5893 21.4943H90.6916V20.4545H91.6631V27.1875C91.6631 27.75 91.5353 28.2074 91.2796 28.5597C91.0268 28.9148 90.6859 29.1747 90.2569 29.3395C89.8308 29.5071 89.3563 29.5909 88.8336 29.5909ZM88.7995 25.9943C89.2029 25.9943 89.5438 25.902 89.8222 25.7173C90.1006 25.5327 90.3123 25.267 90.4572 24.9205C90.6021 24.5739 90.6745 24.1591 90.6745 23.6761C90.6745 23.2045 90.6035 22.7884 90.4614 22.4276C90.3194 22.0668 90.1092 21.7841 89.8308 21.5795C89.5523 21.375 89.2086 21.2727 88.7995 21.2727C88.3734 21.2727 88.0183 21.3807 87.7342 21.5966C87.4529 21.8125 87.2413 22.1023 87.0992 22.4659C86.96 22.8295 86.8904 23.233 86.8904 23.6761C86.8904 24.1307 86.9614 24.5327 87.1035 24.8821C87.2484 25.2287 87.4614 25.5014 87.7427 25.7003C88.0268 25.8963 88.379 25.9943 88.7995 25.9943Z" fill="black"/>
<circle cx="7.5" cy="7.5" r="7.5" fill="url(#paint0_linear_611_169)" fill-opacity="0.6"/>
<circle cx="61.5" cy="7.5" r="7.5" fill="url(#paint1_linear_611_169)" fill-opacity="0.6"/>
<defs>
<linearGradient id="paint0_linear_611_169" x1="7.5" y1="0" x2="7.5" y2="15" gradientUnits="userSpaceOnUse">
<stop stop-color="#FF0404"/>
<stop offset="0.192708" stop-color="#FB7B05"/>
<stop offset="0.364583" stop-color="#FBE205"/>
<stop offset="0.541667" stop-color="#19FB05"/>
<stop offset="0.697917" stop-color="#0559FB"/>
<stop offset="0.848958" stop-color="#7105FB"/>
<stop offset="1" stop-color="#9E05FB" stop-opacity="0"/>
<stop offset="1" stop-color="#9E05FB"/>
</linearGradient>
<linearGradient id="paint1_linear_611_169" x1="61.5" y1="0" x2="61.5" y2="15" gradientUnits="userSpaceOnUse">
<stop stop-color="#FF0404"/>
<stop offset="0.192708" stop-color="#FB7B05"/>
<stop offset="0.364583" stop-color="#FBE205"/>
<stop offset="0.541667" stop-color="#19FB05"/>
<stop offset="0.697917" stop-color="#0559FB"/>
<stop offset="0.848958" stop-color="#7105FB"/>
<stop offset="1" stop-color="#9E05FB" stop-opacity="0"/>
<stop offset="1" stop-color="#9E05FB"/>
</linearGradient>
</defs>
</svg>
